# xmcd
#
# Track frame offsets:
#	150
#	16057
#	32797
#	46665
#	59985
#	76032
#	95827
#	111197
#	122532
#	141287
#	159597
#	176740
#
# Disc length: 2587 seconds
#
# Revision: 0
# Processed by: cddbd v1.5.2PL0 Copyright (c) Steve Scherf et al.
# Submitted via: dBpowerAMP V4.0
#
DISCID=9c0a190c
DTITLE=Bobbie Eakes - Here And Now
DYEAR=1998
DGENRE=Country
TTITLE0=A Broken Wing
TTITLE1=Father Sun
TTITLE2=We Made Love
TTITLE3=That`s As Far As I`ll Go
TTITLE4=The Crush
TTITLE5=Fools Lullaby
TTITLE6=What Do I Know
TTITLE7=Long As I`m With You
TTITLE8=I Know What Happens Next
TTITLE9=While You Were Out
TTITLE10=Only When (I Breathe)
TTITLE11=It`s Your Love
EXTD=
EXTT0=
EXTT1=
EXTT2=
EXTT3=
EXTT4=
EXTT5=
EXTT6=
EXTT7=
EXTT8=
EXTT9=
EXTT10=
EXTT11=
PLAYORDER=
